<svg width="48" height="48" viewBox="0 0 48 48" fill="none" xmlns="http://www.w3.org/2000/svg">
<rect width="48" height="48" fill="#060708"/>
<path d="M11.5467 33V16.44H19.3947C21.8427 16.44 23.0667 17.664 23.0667 20.112V22.752C23.0667 24.832 22.1787 26.016 20.4027 26.304L23.5467 32.52L23.2827 33H21.5787L18.2427 26.424H13.5627V33H11.5467ZM13.5627 24.6H19.4187C20.5067 24.6 21.0507 24.056 21.0507 22.968V19.896C21.0507 18.808 20.5067 18.264 19.4187 18.264H13.5627V24.6ZM26.2743 29.328V20.112C26.2743 17.664 27.4983 16.44 29.9463 16.44H33.4023C35.8503 16.44 37.0743 17.664 37.0743 20.112V29.328C37.0743 31.776 35.8503 33 33.4023 33H29.9463C27.4983 33 26.2743 31.776 26.2743 29.328ZM28.2903 29.544C28.2903 30.632 28.8343 31.176 29.9223 31.176H33.4263C34.5143 31.176 35.0583 30.632 35.0583 29.544V19.896C35.0583 18.808 34.5143 18.264 33.4263 18.264H29.9223C28.8343 18.264 28.2903 18.808 28.2903 19.896V29.544Z" fill="white"/>
</svg>
